# xmcd CD database file
#
# Track frame offsets:
#	182
#	14057
#	24707
#	39182
#	52307
#	64607
#	78332
#	91682
#	104882
#	118232
#	133607
#	145232
#	158207
#	172457
#	184382
#	199157
#	210182
#
# Disc length: 3019 seconds
#
# Revision: 3
# Processed by: cddbd v1.5.1PL0 Copyright (c) Steve Scherf et al.
# Submitted via: CDex 1.51
#
DISCID=fd0bc911
DTITLE=Django Reinhardt - Pêche à la mouche - The Great Blue Star Sessions 1947-1953 - CD2 - Nuages
DYEAR=2003
DGENRE=Jazz
TTITLE0=Topsy [Paris, October 4, 1947]
TTITLE1=Moppin' The Bride - Micro - [Paris, October 4, 1947]
TTITLE2=Insensiblement [Paris, October 4, 1947]
TTITLE3=Mano [Paris, October 4, 1947]
TTITLE4=Blues primitif [Paris, October 4, 1947]
TTITLE5=Gipsy With a Song (take 1) [Paris, October 4, 1947]
TTITLE6=Gipsy With a Song (take 2) [Paris, October 4, 1947]
TTITLE7=Night and Day [Paris, December 10, 1947]
TTITLE8=Confessin' (That I Love You) [Paris, December 10, 1947]
TTITLE9=Blues For Ike [Paris, March 10, 1953]
TTITLE10=September Song [Paris, March 10, 1953]
TTITLE11=Night and Day [Paris, March 10, 1953]
TTITLE12=Insensiblement [Paris, March 10, 1953]
TTITLE13=Manoir de mes rêves [Paris, March 10, 1953]
TTITLE14=Nuages [Paris, March 10, 1953]
TTITLE15=Brazil [Paris, March 10, 1953]
TTITLE16=Confessin' (That I Love You) [Paris, March 10, 1953]
EXTD=YEAR: 2003
EXTT0=
EXTT1=
EXTT2=
EXTT3=
EXTT4=
EXTT5=
EXTT6=
EXTT7=
EXTT8=
EXTT9=
EXTT10=
EXTT11=
EXTT12=
EXTT13=
EXTT14=
EXTT15=
EXTT16=
PLAYORDER=
